<?xml version="1.0" encoding="UTF-8" standalone="no"?>
<svg xmlns="http://www.w3.org/2000/svg"
     viewBox="0 0 64 64"
     version="1.1">
    <g transform="translate(3.3994769,-0.20488004)" id="book">
        <g transform="matrix(1.151959,0,0,1.151959,-10.522781,0.52600754)" id="bookCurve">
            <path id="backing" fill="#244875" d="m 14,6 0,43 c 0,3 3,5 5,5 L 54,54 54,1 19,1 c -3,0 -5,2 -5,5 z"/>
            <path id="pages" fill="#DDDDDD" d="m 16,48 c 0,2 1,4 4,4 l 32,0 0,-8 -32,0 c -3,0 -4,2 -4,4 z"/>
            <path id="cover" fill="#507EDB" d="M 23,44 54,44 54,1 23,1 23,44 Z"/>
        </g>
        <path id="ribbon"
              d="m 11.363333,8.5698526 c -2.3274671,0 -4.2578808,0.6861125 -5.8452918,1.7526874 l 0,12.669299 c 1.6640647,-1.716542 3.6342947,-2.902396 5.8452918,-2.902396 l 40.318565,0 0,-11.5195904 -40.318565,0 z"
              fill="#7a3b3f"/>
    </g>
</svg>
