<svg xmlns="http://www.w3.org/2000/svg" viewBox="0 0 287.85 47.48"><defs><style>.cls-1{fill:#fff;}.cls-2{fill:none;stroke:#fff;stroke-miterlimit:10;stroke-width:3px;}</style></defs><g id="Layer_2" data-name="Layer 2"><g id="Layer_1-2" data-name="Layer 1"><path class="cls-1" d="M6.55,38.91c1.23,2.31,7.88,2.31,7.88,2.31s6.66,0,7.89-2.31v-.57h6.55v3c-.61,6.15-14.44,6.15-14.44,6.15S.58,47.48,0,41.33V24.88c.58-6.16,14.43-6.16,14.43-6.16s13.83,0,14.44,6.16v3H22.32v-.57C21.09,25,14.43,25,14.43,25s-6.65,0-7.88,2.31Z"/><path class="cls-1" d="M59.68,41.33c-.57,6.15-14.43,6.15-14.43,6.15s-13.86,0-14.43-6.15V24.88c.57-6.16,14.43-6.16,14.43-6.16s13.86,0,14.43,6.16Zm-6.55-14C51.91,25,45.25,25,45.25,25s-6.66,0-7.88,2.34V38.91c1.22,2.31,7.88,2.31,7.88,2.31s6.66,0,7.92-2.31Z"/><path class="cls-1" d="M100.33,24.88v22H93.81V27.29C93.81,25,89,25,89,25c-4.6,0-4.78,2.13-4.78,2.31V46.87H77.72V27.29C77.72,25,72.93,25,72.93,25s-4.75,0-4.75,2.31V46.87H61.63v-22c0-6.16,11.3-6.16,11.3-6.16A16.44,16.44,0,0,1,81,20.38c1.65-.94,4.17-1.66,8-1.66C89,18.72,100.33,18.72,100.33,24.88Z"/><path class="cls-1" d="M126,37.58h-7.63L113.54,31H125.1c1.15.11,1.15-2.48,1.15-2.48s0-2.55-1.15-2.55H108.83V46.87h-6.55V19.37H126.1c7.17,0,7.17,9.14,7.17,9.14S133.27,37.58,126,37.58Z"/><path class="cls-1" d="M164.08,41.33c-.57,6.15-14.43,6.15-14.43,6.15s-13.86,0-14.44-6.15v-22h6.56V38.91c1.22,2.31,7.88,2.31,7.88,2.31s6.66,0,7.88-2.31V19.37h6.55Z"/><path class="cls-1" d="M166,19.37h27.25V26H182.91V46.87H176.4V26H166Z"/><path class="cls-1" d="M195.23,19.37h23.82c7.17,0,7.17,9.14,7.17,9.14s0,9.07-7.27,9.07l7.16,9.29h-8L206.49,31h11.56c1.15.11,1.15-2.48,1.15-2.48s0-2.55-1.15-2.55H201.78V46.87h-6.55Z"/><path class="cls-1" d="M257,41.33c-.57,6.15-14.43,6.15-14.43,6.15s-13.86,0-14.43-6.15V24.88c.57-6.16,14.43-6.16,14.43-6.16s13.86,0,14.43,6.16Zm-6.55-14C249.26,25,242.6,25,242.6,25s-6.66,0-7.88,2.34V38.91c1.22,2.31,7.88,2.31,7.88,2.31s6.66,0,7.92-2.31Z"/><path class="cls-1" d="M259,24.88c.58-6.16,14.44-6.16,14.44-6.16s13.85,0,14.43,6.16v22H281.3V27.29C280.08,25,273.42,25,273.42,25s-6.66,0-7.89,2.31V46.87H259Z"/><path class="cls-2" d="M170.6,12.82s8.38-9.43,18.23,0"/><path class="cls-2" d="M166,7.77s12.52-14.1,27.25,0"/></g></g></svg>