<?xml version="1.0" encoding="UTF-8" standalone="no"?>
<svg xmlns:dc="http://purl.org/dc/elements/1.1/" xmlns:cc="http://creativecommons.org/ns#"
     xmlns:rdf="http://www.w3.org/1999/02/22-rdf-syntax-ns#" xmlns="http://www.w3.org/2000/svg"
     viewBox="0 0 666.66669 666.66669" height="666.66669" width="666.66669" xml:space="preserve" id="svg2"
     version="1.1">
  <metadata id="metadata8">
    <rdf:RDF>
      <cc:Work rdf:about="">
        <dc:format>image/svg+xml</dc:format>
          <dc:type rdf:resource="http://purl.org/dc/dcmitype/StillImage"/>
      </cc:Work>
    </rdf:RDF>
  </metadata>
    <defs id="defs6">
    <clipPath id="clipPath18" clipPathUnits="userSpaceOnUse">
      <path id="path16" d="M 0,500 H 500 V 0 H 0 Z"/>
    </clipPath>
  </defs>
    <g transform="matrix(1.3333333,0,0,-1.3333333,0,666.66667)" id="g10">
    <g id="g12">
      <g clip-path="url(#clipPath18)" id="g14">
          <path id="path70" style="fill:#e38658;fill-opacity:1;fill-rule:evenodd;stroke:none"
                d="m 179.442,209.457 11.051,-12.263 c 7.294,-8.09 16.109,-14.696 26.053,-19.524 11.563,-5.612 20.89,-14.562 26.891,-25.804 1.08,-2.025 0.873,-4.607 -0.541,-6.718 -1.414,-2.112 -3.805,-3.413 -6.228,-3.386 -12.466,0.133 -23.682,5.537 -30.848,14.866 -3.407,4.435 -7.706,8.094 -12.674,10.79 -8.11,4.402 -16.177,8.874 -24.197,13.415 z"/>
          <path id="path72" style="fill:#e38658;fill-opacity:1;fill-rule:evenodd;stroke:none"
                d="m 195.494,249.764 16.128,-11.244 c 10.643,-7.421 22.73,-12.795 35.721,-15.884 15.107,-3.591 28.373,-11.497 38.251,-22.794 1.782,-2.037 2.168,-5.01 1.005,-7.739 -1.162,-2.73 -3.685,-4.777 -6.567,-5.326 -14.837,-2.831 -29.481,0.607 -40.276,9.459 -5.13,4.209 -11.132,7.326 -17.693,9.191 -10.709,3.047 -21.384,6.182 -32.021,9.408 z"/>
          <path id="path74" style="fill:#e38658;fill-opacity:1;fill-rule:evenodd;stroke:none"
                d="m 171.987,207.269 18.277,-5.779 c 12.061,-3.813 23.136,-9.875 32.727,-17.911 11.154,-9.347 25.032,-14.86 40.021,-15.903 2.7,-0.187 5.463,1.207 7.188,3.629 1.727,2.422 2.139,5.479 1.072,7.962 -5.487,12.781 -16.261,21.864 -29.635,24.982 -6.356,1.481 -12.241,4.236 -17.349,8.121 -8.337,6.343 -16.731,12.609 -25.184,18.794 z"/>
          <path id="path76" style="fill:#e38658;fill-opacity:1;fill-rule:evenodd;stroke:none"
                d="m 118.949,272.001 18.622,13.021 c 7.554,5.283 15.899,9.333 24.724,11.999 10.098,3.05 18.668,9.804 23.997,18.906 0.975,1.665 2.651,2.799 4.561,3.082 1.906,0.282 3.84,-0.316 5.256,-1.627 5.626,-5.211 7.111,-13.524 3.636,-20.361 -5.968,-11.739 -15.323,-21.419 -26.853,-27.786 l -49.501,-12.209 z"/>
          <path id="path78" style="fill:#e38658;fill-opacity:1;fill-rule:evenodd;stroke:none"
                d="m 208.86,266.236 15.582,-8.704 c 10.282,-5.743 21.706,-9.55 33.763,-11.249 14.021,-1.975 26.727,-7.939 36.636,-17.195 1.785,-1.668 2.382,-4.282 1.553,-6.807 -0.831,-2.522 -2.954,-4.545 -5.526,-5.267 -13.246,-3.719 -26.832,-1.84 -37.372,5.164 -5.009,3.33 -10.719,5.619 -16.833,6.75 -9.981,1.844 -19.938,3.773 -29.869,5.785 z"/>
          <path id="path80" style="fill:#f29d72;fill-opacity:1;fill-rule:evenodd;stroke:none"
                d="m 98.01,261.693 c 22.396,16.453 50.863,22.299 77.93,16.001 10.754,-2.502 21.343,-5.669 31.706,-9.483 7.858,-2.891 12.489,-11.026 10.963,-19.259 -4.245,-22.904 -15.173,-44.041 -31.409,-60.745 -6.978,-7.179 -17.353,-9.914 -26.965,-7.11 -16.464,4.803 -32.137,11.991 -46.52,21.335 L 46.749,175.609 19.191,244.353 Z"/>
          <path id="path82" style="fill:#f8e9d6;fill-opacity:1;fill-rule:evenodd;stroke:none"
                d="M 102.085,192.023 67.121,259.429 32.156,251.22 77.195,178.636 Z"/>
          <path id="path84" style="fill:#ebd7bc;fill-opacity:1;fill-rule:evenodd;stroke:none"
                d="m 59.389,207.331 28.955,11.185 13.741,-26.493 -24.89,-13.387 z"/>
          <path id="path86" style="fill:#4d4441;fill-opacity:1;fill-rule:evenodd;stroke:none"
                d="M 39.564,259.429 86.678,175.646 8.803,137.734 v 117.131 z"/>
          <path id="path88" style="fill:#332d2a;fill-opacity:1;fill-rule:evenodd;stroke:none"
                d="M 8.803,187.74 70.882,203.735 86.678,175.646 8.803,137.734 Z"/>
          <path id="path90" style="fill:#732c04;fill-opacity:1;fill-rule:evenodd;stroke:none"
                d="m 324.114,329.166 -11.052,-12.262 c -7.293,-8.091 -16.109,-14.697 -26.053,-19.524 -11.564,-5.613 -20.888,-14.562 -26.889,-25.804 -1.083,-2.027 -0.874,-4.607 0.539,-6.718 1.414,-2.112 3.806,-3.413 6.229,-3.388 12.466,0.133 23.681,5.539 30.848,14.866 3.406,4.435 7.706,8.095 12.674,10.792 8.111,4.4 16.178,8.872 24.197,13.415 z"/>
          <path id="path92" style="fill:#732c04;fill-opacity:1;fill-rule:evenodd;stroke:none"
                d="m 308.061,369.473 -16.128,-11.245 c -10.642,-7.42 -22.729,-12.794 -35.721,-15.883 -15.108,-3.592 -28.373,-11.497 -38.25,-22.795 -1.78,-2.036 -2.167,-5.009 -1.005,-7.738 1.161,-2.73 3.685,-4.776 6.566,-5.326 14.838,-2.831 29.482,0.608 40.276,9.46 5.131,4.207 11.134,7.325 17.692,9.191 10.71,3.045 21.385,6.181 32.023,9.407 z"/>
          <path id="path94" style="fill:#732c04;fill-opacity:1;fill-rule:evenodd;stroke:none"
                d="m 331.569,326.978 -18.278,-5.779 c -12.06,-3.814 -23.135,-9.874 -32.727,-17.91 -11.153,-9.347 -25.033,-14.861 -40.019,-15.903 -2.702,-0.188 -5.463,1.204 -7.191,3.627 -1.725,2.422 -2.136,5.481 -1.072,7.964 5.489,12.78 16.264,21.863 29.638,24.981 6.355,1.481 12.241,4.237 17.347,8.122 8.337,6.342 16.731,12.607 25.184,18.792 z"/>
          <path id="path96" style="fill:#732c04;fill-opacity:1;fill-rule:evenodd;stroke:none"
                d="m 294.695,385.945 -15.581,-8.704 c -10.281,-5.742 -21.706,-9.549 -33.763,-11.249 -14.022,-1.976 -26.728,-7.939 -36.635,-17.195 -1.787,-1.668 -2.383,-4.282 -1.553,-6.806 0.83,-2.523 2.953,-4.547 5.525,-5.269 13.246,-3.718 26.833,-1.84 37.371,5.165 5.009,3.33 10.72,5.62 16.834,6.749 9.982,1.846 19.937,3.775 29.868,5.786 z"/>
          <path id="path98" style="fill:#823103;fill-opacity:1;fill-rule:evenodd;stroke:none"
                d="m 405.545,381.402 c -22.395,16.454 -50.862,22.299 -77.929,16.001 -10.755,-2.502 -21.343,-5.669 -31.706,-9.482 -7.858,-2.892 -12.488,-11.026 -10.964,-19.26 4.246,-22.905 15.174,-44.04 31.41,-60.744 6.978,-7.18 17.353,-9.916 26.964,-7.111 16.464,4.804 32.138,11.991 46.521,21.334 l 66.967,-26.822 27.556,68.744 z"/>
          <path id="path100" style="fill:#993e09;fill-opacity:1;fill-rule:evenodd;stroke:none"
                d="m 405.545,381.402 c -22.32,16.399 -50.674,22.259 -77.66,16.062 l 2.777,-8.52 8.472,-12.209 c 7.787,-11.221 20.908,-17.511 34.533,-16.554 13.624,0.957 25.737,9.021 31.878,21.221"/>
          <path id="path102" style="fill:#f8e9d6;fill-opacity:1;fill-rule:evenodd;stroke:none"
                d="m 401.47,311.733 34.965,67.406 34.964,-8.21 -45.039,-72.584 z"/>
          <path id="path104" style="fill:#ebd7bc;fill-opacity:1;fill-rule:evenodd;stroke:none"
                d="m 444.167,327.041 -28.954,11.184 -13.743,-26.492 24.89,-13.388 z"/>
          <path id="path106" style="fill:#4d4441;fill-opacity:1;fill-rule:evenodd;stroke:none"
                d="m 463.991,379.139 -47.113,-83.784 77.876,-37.911 v 117.13 z"/>
          <path id="path108" style="fill:#332d2a;fill-opacity:1;fill-rule:evenodd;stroke:none"
                d="m 494.754,307.45 -62.08,15.994 -15.796,-28.089 77.876,-37.911 z"/>
          <path id="path110" style="fill:#993e09;fill-opacity:1;fill-rule:evenodd;stroke:none"
                d="m 384.607,391.71 -18.622,13.021 c -7.554,5.284 -15.9,9.333 -24.723,11.999 -10.099,3.051 -18.669,9.804 -23.997,18.907 -0.976,1.665 -2.652,2.798 -4.562,3.08 -1.907,0.283 -3.84,-0.316 -5.256,-1.626 -5.628,-5.211 -7.112,-13.524 -3.635,-20.361 5.967,-11.74 15.322,-21.419 26.85,-27.786 l 49.504,-12.209 z"/>
      </g>
    </g>
  </g>
</svg>